<svg width="26" height="24" viewBox="0 0 26 24" fill="none" xmlns="http://www.w3.org/2000/svg">
<path d="M16.9164 9.87982L12.1317 5.28982C11.9364 5.10356 11.6722 4.99902 11.3968 4.99902C11.1214 4.99902 10.8572 5.10356 10.6619 5.28982C10.5642 5.38278 10.4866 5.49338 10.4337 5.61524C10.3808 5.7371 10.3535 5.8678 10.3535 5.99982C10.3535 6.13183 10.3808 6.26253 10.4337 6.38439C10.4866 6.50625 10.5642 6.61685 10.6619 6.70982L15.457 11.2898C15.5547 11.3828 15.6323 11.4934 15.6852 11.6152C15.7381 11.7371 15.7654 11.8678 15.7654 11.9998C15.7654 12.1318 15.7381 12.2625 15.6852 12.3844C15.6323 12.5063 15.5547 12.6169 15.457 12.7098L10.6619 17.2898C10.4656 17.4768 10.3547 17.7309 10.3538 17.9963C10.3528 18.2616 10.4617 18.5165 10.6567 18.7048C10.8516 18.8931 11.1165 18.9994 11.3931 19.0004C11.6697 19.0013 11.9354 18.8968 12.1317 18.7098L16.9164 14.1198C17.502 13.5573 17.831 12.7948 17.831 11.9998C17.831 11.2048 17.502 10.4423 16.9164 9.87982V9.87982Z" fill="#636D77" fill-opacity="0.5"/>
</svg>
