<svg width="26" height="28" viewBox="0 0 26 28" fill="none" xmlns="http://www.w3.org/2000/svg">
<mask id="mask0_742_832" style="mask-type:alpha" maskUnits="userSpaceOnUse" x="0" y="0" width="26" height="28">
<rect x="0.0898438" y="0.285645" width="25.7143" height="27.4286" rx="12.8571" fill="#C4C4C4"/>
</mask>
<g mask="url(#mask0_742_832)">
</g>
<g clip-path="url(#clip0_742_832)">
<rect x="0.0898438" y="0.285645" width="25.7143" height="27.4286" rx="12.8571" fill="#E0C2DE"/>
<path d="M9.64192 25.3841C11.3106 24.8351 11.156 22.5149 10.9675 21.1564L17.9269 11.7642C17.9269 15.3074 17.1082 17.0042 17.1082 19.6242C17.1082 27.3179 22.0792 25.592 22.0792 27.7338H4.02759C4.02759 26.4654 7.43907 25.6198 9.64192 25.3841Z" fill="#C18E77"/>
<mask id="mask1_742_832" style="mask-type:alpha" maskUnits="userSpaceOnUse" x="6" y="11" width="17" height="17">
<path d="M9.64184 25.3841C11.3105 24.8351 11.1559 22.5149 10.9674 21.1564L17.9269 11.7642C17.9269 15.3074 17.1081 17.0042 17.1081 19.6242C17.1081 27.3179 22.0791 25.592 22.0791 27.7338H6.81519C6.81519 26.4654 7.439 25.6198 9.64184 25.3841Z" fill="#BC8B75"/>
</mask>
<g mask="url(#mask1_742_832)">
<path d="M10.8701 23.4086V21.6121C11.9316 20.6795 13.5972 19.437 13.3861 20.4739C13.175 21.5109 11.7146 23.0345 10.8701 23.4086Z" fill="black" fill-opacity="0.3" style="mix-blend-mode:overlay"/>
</g>
<path d="M8.91031 22.6185C7.87711 22.6185 6.24081 21.163 4.67092 15.9022C4.28621 14.6129 4.45401 13.1233 4.54028 12.4712C5.3885 6.05959 10.0467 5.44287 11.4445 5.44287C16.2596 5.44287 17.9361 9.58084 17.9361 12.0969C17.9361 18.5005 12.7766 21.1037 11.3137 21.8417L11.2989 21.8492C9.85638 22.5771 9.85638 22.6185 8.91031 22.6185Z" fill="#C18E77"/>
<path d="M8.59447 21.2882C6.91188 20.2472 6.64136 14.6386 7.39691 12.1409C8.15246 9.6433 10.4889 7.12412 13.1781 8.2272C15.8674 9.33028 15.8586 11.9592 14.7866 15.3669C13.7147 18.7747 10.2771 22.3292 8.59447 21.2882Z" fill="white" fill-opacity="0.15"/>
<path d="M8.23835 25.4046C8.83381 24.4065 10.2073 23.3254 11.0455 22.9927C11.0455 24.6352 9.99283 25.1342 9.64193 25.7789C9.38851 26.3819 10.072 26.777 11.6888 26.777C13.5993 26.777 15.0542 25.6647 15.5877 25.238C17.1472 23.9906 16.0359 22.8261 15.9775 22.1191C18.8821 22.7222 18.9991 22.8055 18.8041 24.656C19.1549 24.9057 22.0791 26.2571 22.0791 27.7335C15.7695 27.7335 4.64353 27.7543 3.98853 27.7543C3.98853 26.6314 6.93215 25.7789 8.13706 25.6125C8.15005 25.5363 8.12919 25.5875 8.23835 25.4046Z" fill="#DE5050"/>
<path d="M14.6519 16.9502C13.6538 11.0115 9.41443 7.91228 7.67295 6.71317C5.43112 8.23112 4.45641 11.1695 4.45641 14.0391C4.45641 16.3056 6.00295 19.6187 6.77622 20.901C5.80801 19.8267 3.87158 16.8296 3.87158 13.436C3.87158 9.19411 5.19719 5.54872 6.91268 4.82093C14.9053 2.42963 19.5449 4.869 19.8568 8.2168C20.1687 11.5646 18.4337 20.8802 17.9659 21.3585C18.5312 21.3169 18.7651 22.0447 18.2388 22.6685C19.3695 22.2318 19.9933 24.4984 18.5117 25.1846C17.0302 25.8708 14.9248 26.7233 11.6108 26.7233C8.29676 26.7233 6.77622 26.2866 7.65346 23.8122C7.23238 23.2632 7.47801 22.3912 7.65346 22.0239C8.02385 22.3982 8.43322 22.6685 9.13502 22.6685C11.6498 22.6685 13.7941 18.9464 14.6519 16.9502Z" fill="#F3F3F3"/>
<path d="M15.763 9.56836C15.9775 12.1676 15.1262 15.557 14.6519 16.9294L14.3984 15.7168C14.8273 14.49 15.7559 11.5022 15.763 9.56836Z" fill="#DAD9D9"/>
<path d="M18.9991 9.09033C17.8684 13.8937 14.5934 21.4834 10.6946 23.8955C13.4043 22.8142 18.1998 17.4702 18.9991 9.09033Z" fill="#DAD9D9"/>
<path d="M6.89323 6.19336L7.673 6.7132C6.56183 7.54496 6.30841 7.91925 5.56763 9.12529C5.84055 7.85686 6.59432 6.58844 6.89323 6.19336Z" fill="#DAD9D9"/>
</g>
<defs>
<clipPath id="clip0_742_832">
<rect x="0.0898438" y="0.285645" width="25.7143" height="27.4286" rx="12.8571" fill="white"/>
</clipPath>
</defs>
</svg>
