<svg width="16" height="16" viewBox="0 0 16 16" fill="none" xmlns="http://www.w3.org/2000/svg">
<g clip-path="url(#clip0_742_837)">
<path d="M15.0266 9.10796L13.7944 4.55062C13.4333 3.21551 12.6484 2.04281 11.5645 1.21894C10.4806 0.395058 9.15999 -0.0327193 7.81248 0.00360073C6.46496 0.0399208 5.16792 0.538254 4.12753 1.41939C3.08713 2.30052 2.36309 3.51389 2.07049 4.86662L1.11657 9.27662C1.0112 9.76391 1.01364 10.2693 1.1237 10.7555C1.23376 11.2417 1.44863 11.6963 1.75246 12.0857C2.05629 12.475 2.44131 12.7893 2.87909 13.0053C3.31688 13.2212 3.79625 13.3333 4.28182 13.3333H5.00423C5.15307 14.0868 5.55073 14.7643 6.12984 15.2509C6.70894 15.7375 7.43388 16.0033 8.18181 16.0033C8.92974 16.0033 9.65468 15.7375 10.2338 15.2509C10.8129 14.7643 11.2105 14.0868 11.3594 13.3333H11.9028C12.4027 13.3333 12.8958 13.2146 13.3436 12.9862C13.7914 12.7579 14.1818 12.4263 14.4843 12.0172C14.7868 11.6081 14.9932 11.1327 15.0874 10.628C15.1816 10.1233 15.161 9.60309 15.0272 9.10796H15.0266ZM8.18181 14.6666C7.78088 14.6649 7.39025 14.5359 7.06337 14.2972C6.73649 14.0586 6.48932 13.7219 6.35568 13.3333H10.0079C9.8743 13.7219 9.62713 14.0586 9.30025 14.2972C8.97337 14.5359 8.58274 14.6649 8.18181 14.6666V14.6666ZM13.4514 11.21C13.2707 11.4564 13.0366 11.6561 12.7676 11.7933C12.4987 11.9304 12.2024 12.0012 11.9022 12H4.28182C3.99051 11.9999 3.70293 11.9326 3.44031 11.803C3.17769 11.6734 2.94673 11.4848 2.76447 11.2512C2.58222 11.0176 2.45333 10.7449 2.38731 10.4532C2.3213 10.1615 2.31985 9.8583 2.38306 9.56596L3.33633 5.15529C3.56612 4.09276 4.13482 3.13969 4.952 2.44759C5.76919 1.75549 6.78797 1.36407 7.8464 1.33557C8.90482 1.30706 9.94214 1.6431 10.7935 2.29027C11.6448 2.93744 12.2612 3.85859 12.5448 4.90729L13.7769 9.46462C13.8584 9.76154 13.8713 10.0739 13.8148 10.3768C13.7583 10.6798 13.6339 10.9651 13.4514 11.21V11.21Z" fill="#636D77"/>
</g>
<defs>
<clipPath id="clip0_742_837">
<rect width="15.5636" height="16" fill="white" transform="translate(0.400146)"/>
</clipPath>
</defs>
</svg>
