<svg width="11" height="11" viewBox="0 0 11 11" fill="none" xmlns="http://www.w3.org/2000/svg">
<g clip-path="url(#clip0_191_412)">
<path d="M2.0625 8.02097H0.916667C0.673552 8.02097 0.440394 8.11754 0.268485 8.28945C0.0965771 8.46136 0 8.69452 0 8.93763L0 10.0835C0 10.3266 0.0965771 10.5597 0.268485 10.7316C0.440394 10.9035 0.673552 11.0001 0.916667 11.0001H2.0625C2.30562 11.0001 2.53877 10.9035 2.71068 10.7316C2.88259 10.5597 2.97917 10.3266 2.97917 10.0835V8.93763C2.97917 8.69452 2.88259 8.46136 2.71068 8.28945C2.53877 8.11754 2.30562 8.02097 2.0625 8.02097ZM2.0625 10.0835H0.916667V8.93763H2.0625V10.0835Z" fill="#364356"/>
<path d="M10.0834 8.02097H8.93754C8.69442 8.02097 8.46127 8.11754 8.28936 8.28945C8.11745 8.46136 8.02087 8.69452 8.02087 8.93763V10.0835C8.02087 10.3266 8.11745 10.5597 8.28936 10.7316C8.46127 10.9035 8.69442 11.0001 8.93754 11.0001H10.0834C10.3265 11.0001 10.5596 10.9035 10.7315 10.7316C10.9035 10.5597 11 10.3266 11 10.0835V8.93763C11 8.69452 10.9035 8.46136 10.7315 8.28945C10.5596 8.11754 10.3265 8.02097 10.0834 8.02097ZM10.0834 10.0835H8.93754V8.93763H10.0834V10.0835Z" fill="#364356"/>
<path d="M2.0625 4.01028H0.916667C0.673552 4.01028 0.440394 4.10686 0.268485 4.27877C0.0965771 4.45068 0 4.68383 0 4.92695L0 6.07278C0 6.31589 0.0965771 6.54905 0.268485 6.72096C0.440394 6.89287 0.673552 6.98944 0.916667 6.98944H2.0625C2.30562 6.98944 2.53877 6.89287 2.71068 6.72096C2.88259 6.54905 2.97917 6.31589 2.97917 6.07278V4.92695C2.97917 4.68383 2.88259 4.45068 2.71068 4.27877C2.53877 4.10686 2.30562 4.01028 2.0625 4.01028ZM2.0625 6.07278H0.916667V4.92695H2.0625V6.07278Z" fill="#364356"/>
<path d="M10.0834 4.01028H8.93754C8.69442 4.01028 8.46127 4.10686 8.28936 4.27877C8.11745 4.45068 8.02087 4.68383 8.02087 4.92695V6.07278C8.02087 6.31589 8.11745 6.54905 8.28936 6.72096C8.46127 6.89287 8.69442 6.98944 8.93754 6.98944H10.0834C10.3265 6.98944 10.5596 6.89287 10.7315 6.72096C10.9035 6.54905 11 6.31589 11 6.07278V4.92695C11 4.68383 10.9035 4.45068 10.7315 4.27877C10.5596 4.10686 10.3265 4.01028 10.0834 4.01028ZM10.0834 6.07278H8.93754V4.92695H10.0834V6.07278Z" fill="#364356"/>
<path d="M2.0625 0H0.916667C0.673552 0 0.440394 0.0965771 0.268485 0.268485C0.0965771 0.440394 0 0.673552 0 0.916667L0 2.0625C0 2.30562 0.0965771 2.53877 0.268485 2.71068C0.440394 2.88259 0.673552 2.97917 0.916667 2.97917H2.0625C2.30562 2.97917 2.53877 2.88259 2.71068 2.71068C2.88259 2.53877 2.97917 2.30562 2.97917 2.0625V0.916667C2.97917 0.673552 2.88259 0.440394 2.71068 0.268485C2.53877 0.0965771 2.30562 0 2.0625 0V0ZM2.0625 2.0625H0.916667V0.916667H2.0625V2.0625Z" fill="#364356"/>
<path d="M6.07287 8.02097H4.92704C4.68393 8.02097 4.45077 8.11754 4.27886 8.28945C4.10695 8.46136 4.01038 8.69452 4.01038 8.93763V10.0835C4.01038 10.3266 4.10695 10.5597 4.27886 10.7316C4.45077 10.9035 4.68393 11.0001 4.92704 11.0001H6.07287C6.31599 11.0001 6.54914 10.9035 6.72105 10.7316C6.89296 10.5597 6.98954 10.3266 6.98954 10.0835V8.93763C6.98954 8.69452 6.89296 8.46136 6.72105 8.28945C6.54914 8.11754 6.31599 8.02097 6.07287 8.02097ZM6.07287 10.0835H4.92704V8.93763H6.07287V10.0835Z" fill="#364356"/>
<path d="M6.07287 4.01028H4.92704C4.68393 4.01028 4.45077 4.10686 4.27886 4.27877C4.10695 4.45068 4.01038 4.68383 4.01038 4.92695V6.07278C4.01038 6.31589 4.10695 6.54905 4.27886 6.72096C4.45077 6.89287 4.68393 6.98944 4.92704 6.98944H6.07287C6.31599 6.98944 6.54914 6.89287 6.72105 6.72096C6.89296 6.54905 6.98954 6.31589 6.98954 6.07278V4.92695C6.98954 4.68383 6.89296 4.45068 6.72105 4.27877C6.54914 4.10686 6.31599 4.01028 6.07287 4.01028ZM6.07287 6.07278H4.92704V4.92695H6.07287V6.07278Z" fill="#364356"/>
<path d="M6.07287 0H4.92704C4.68393 0 4.45077 0.0965771 4.27886 0.268485C4.10695 0.440394 4.01038 0.673552 4.01038 0.916667V2.0625C4.01038 2.30562 4.10695 2.53877 4.27886 2.71068C4.45077 2.88259 4.68393 2.97917 4.92704 2.97917H6.07287C6.31599 2.97917 6.54914 2.88259 6.72105 2.71068C6.89296 2.53877 6.98954 2.30562 6.98954 2.0625V0.916667C6.98954 0.673552 6.89296 0.440394 6.72105 0.268485C6.54914 0.0965771 6.31599 0 6.07287 0V0ZM6.07287 2.0625H4.92704V0.916667H6.07287V2.0625Z" fill="#364356"/>
<path d="M10.0834 0H8.93754C8.69442 0 8.46127 0.0965771 8.28936 0.268485C8.11745 0.440394 8.02087 0.673552 8.02087 0.916667V2.0625C8.02087 2.30562 8.11745 2.53877 8.28936 2.71068C8.46127 2.88259 8.69442 2.97917 8.93754 2.97917H10.0834C10.3265 2.97917 10.5596 2.88259 10.7315 2.71068C10.9035 2.53877 11 2.30562 11 2.0625V0.916667C11 0.673552 10.9035 0.440394 10.7315 0.268485C10.5596 0.0965771 10.3265 0 10.0834 0V0ZM10.0834 2.0625H8.93754V0.916667H10.0834V2.0625Z" fill="#364356"/>
</g>
<defs>
<clipPath id="clip0_191_412">
<rect width="11" height="11" fill="white"/>
</clipPath>
</defs>
</svg>
