<svg width="11" height="11" viewBox="0 0 11 11" fill="none" xmlns="http://www.w3.org/2000/svg">
<g clip-path="url(#clip0_191_415)">
<path d="M5.04167 5.5C5.16322 5.5 5.2798 5.54829 5.36576 5.63424C5.45171 5.7202 5.5 5.83678 5.5 5.95833C5.5 6.07989 5.45171 6.19647 5.36576 6.28242C5.2798 6.36838 5.16322 6.41667 5.04167 6.41667H3.66667C3.54511 6.41667 3.42853 6.36838 3.34258 6.28242C3.25662 6.19647 3.20833 6.07989 3.20833 5.95833C3.20833 5.83678 3.25662 5.7202 3.34258 5.63424C3.42853 5.54829 3.54511 5.5 3.66667 5.5H5.04167ZM7.79167 4.125C7.79167 4.00344 7.74338 3.88686 7.65742 3.80091C7.57147 3.71496 7.45489 3.66667 7.33333 3.66667H3.66667C3.54511 3.66667 3.42853 3.71496 3.34258 3.80091C3.25662 3.88686 3.20833 4.00344 3.20833 4.125C3.20833 4.24656 3.25662 4.36314 3.34258 4.44909C3.42853 4.53504 3.54511 4.58333 3.66667 4.58333H7.33333C7.45489 4.58333 7.57147 4.53504 7.65742 4.44909C7.74338 4.36314 7.79167 4.24656 7.79167 4.125ZM3.66667 2.75H7.33333C7.45489 2.75 7.57147 2.70171 7.65742 2.61576C7.74338 2.5298 7.79167 2.41322 7.79167 2.29167C7.79167 2.17011 7.74338 2.05353 7.65742 1.96758C7.57147 1.88162 7.45489 1.83333 7.33333 1.83333H3.66667C3.54511 1.83333 3.42853 1.88162 3.34258 1.96758C3.25662 2.05353 3.20833 2.17011 3.20833 2.29167C3.20833 2.41322 3.25662 2.5298 3.34258 2.61576C3.42853 2.70171 3.54511 2.75 3.66667 2.75ZM9.16667 8.91183V10.6686C9.1667 10.734 9.14733 10.7979 9.11103 10.8523C9.07472 10.9067 9.02309 10.9491 8.96269 10.9741C8.90229 10.9991 8.83582 11.0057 8.77169 10.9929C8.70757 10.9801 8.64867 10.9486 8.60246 10.9024L8.25 10.5504L7.89754 10.9024C7.85133 10.9486 7.79243 10.9801 7.72831 10.9929C7.66418 11.0057 7.59771 10.9991 7.53731 10.9741C7.47691 10.9491 7.42528 10.9067 7.38897 10.8523C7.35267 10.7979 7.3333 10.734 7.33333 10.6686V8.91183C6.98378 8.711 6.71046 8.40021 6.55592 8.02787C6.40138 7.65554 6.3743 7.24254 6.47891 6.85321C6.58351 6.46388 6.81392 6.12007 7.13425 5.87532C7.45459 5.63056 7.84687 5.49861 8.25 5.5C8.40494 5.50194 8.55898 5.52381 8.70833 5.56508V2.29167C8.70833 1.92699 8.56347 1.57726 8.30561 1.31939C8.04774 1.06153 7.69801 0.916667 7.33333 0.916667H3.66667C3.30199 0.916667 2.95226 1.06153 2.69439 1.31939C2.43653 1.57726 2.29167 1.92699 2.29167 2.29167V7.79167C2.29167 8.15634 2.43653 8.50608 2.69439 8.76394C2.95226 9.0218 3.30199 9.16667 3.66667 9.16667H5.95833C6.07989 9.16667 6.19647 9.21496 6.28242 9.30091C6.36838 9.38686 6.41667 9.50344 6.41667 9.625C6.41667 9.74656 6.36838 9.86314 6.28242 9.94909C6.19647 10.035 6.07989 10.0833 5.95833 10.0833H3.66667C3.0591 10.0826 2.47663 9.84093 2.04702 9.41132C1.6174 8.9817 1.37573 8.39923 1.375 7.79167V2.29167C1.37573 1.6841 1.6174 1.10163 2.04702 0.672017C2.47663 0.242404 3.0591 0.000727768 3.66667 0L7.33333 0C7.9409 0.000727768 8.52337 0.242404 8.95298 0.672017C9.3826 1.10163 9.62427 1.6841 9.625 2.29167V6.13342C9.80454 6.33504 9.93671 6.57425 10.0118 6.83356C10.087 7.09286 10.1032 7.36569 10.0592 7.63206C10.0153 7.89843 9.91232 8.1516 9.75789 8.37303C9.60345 8.59447 9.40145 8.77856 9.16667 8.91183V8.91183ZM9.16667 7.33333C9.16667 7.15203 9.11291 6.97481 9.01218 6.82406C8.91146 6.67332 8.76829 6.55582 8.60079 6.48644C8.43329 6.41706 8.24898 6.39891 8.07117 6.43428C7.89335 6.46965 7.73002 6.55695 7.60182 6.68515C7.47362 6.81335 7.38632 6.97668 7.35095 7.1545C7.31558 7.33232 7.33373 7.51663 7.40311 7.68413C7.47249 7.85163 7.58998 7.99479 7.74073 8.09551C7.89147 8.19624 8.0687 8.25 8.25 8.25C8.49312 8.25 8.72627 8.15342 8.89818 7.98151C9.07009 7.80961 9.16667 7.57645 9.16667 7.33333Z" fill="#374957"/>
</g>
<defs>
<clipPath id="clip0_191_415">
<rect width="11" height="11" fill="white"/>
</clipPath>
</defs>
</svg>
