<svg width="20" height="20" viewBox="0 0 20 20" fill="none" xmlns="http://www.w3.org/2000/svg">
<g clip-path="url(#clip0_162_292)">
<path d="M18.3807 4.35818L12.2357 1.43068C10.883 0.622713 9.19944 0.608377 7.83319 1.39318L1.61905 4.35818C1.59573 4.36986 1.57155 4.38236 1.54905 4.39568C0.0743581 5.23889 -0.437595 7.11791 0.405608 8.5926C0.691428 9.09252 1.11186 9.50213 1.61905 9.77486L3.33322 10.5915V14.6749C3.33424 16.5008 4.52233 18.1139 6.26573 18.6565C7.47897 19.0075 8.73697 19.1794 9.9999 19.1665C11.2626 19.1807 12.5206 19.0103 13.7341 18.6607C15.4775 18.1181 16.6656 16.5049 16.6666 14.679V10.5899L18.3333 9.79318V16.6665C18.3333 17.1267 18.7063 17.4998 19.1666 17.4998C19.6268 17.4998 19.9999 17.1267 19.9999 16.6665V6.6665C20.0054 5.68795 19.2328 4.78396 18.3807 4.35818ZM14.9999 14.679C15.0003 15.7712 14.2917 16.7372 13.2499 17.0649C12.1934 17.3667 11.0986 17.5133 9.99987 17.4999C8.90115 17.5133 7.80635 17.3667 6.74987 17.0649C5.70803 16.7372 4.99944 15.7712 4.99987 14.679V11.3857L7.76404 12.7024C8.44608 13.1074 9.22502 13.3202 10.0182 13.3182C10.7732 13.3236 11.5155 13.1237 12.1657 12.7399L14.9999 11.3857V14.679ZM17.6665 8.27068L11.3815 11.2707C10.5052 11.781 9.41901 11.7665 8.55654 11.2332L2.40737 8.30818C1.72194 7.93857 1.46592 7.0833 1.83553 6.39791C1.96053 6.16611 2.14795 5.97396 2.37655 5.84318L8.62236 2.85986C9.49897 2.35072 10.5846 2.36514 11.4474 2.89736L17.5924 5.82486C18.0443 6.0758 18.327 6.54967 18.3332 7.06654C18.334 7.55615 18.0819 8.01146 17.6665 8.27068Z" fill="white"/>
</g>
<defs>
<clipPath id="clip0_162_292">
<rect width="20" height="20" fill="white"/>
</clipPath>
</defs>
</svg>
