<svg width="17" height="16" viewBox="0 0 17 16" fill="none" xmlns="http://www.w3.org/2000/svg">
<g clip-path="url(#clip0_742_836)">
<path d="M15.9554 14.8623L12.0846 10.883C13.1395 9.55674 13.6581 7.8644 13.5332 6.15605C13.4084 4.4477 12.6496 2.85403 11.4138 1.70469C10.178 0.55535 8.55984 -0.0617289 6.89391 -0.0189077C5.22799 0.0239135 3.6418 0.723358 2.46344 1.93475C1.28509 3.14614 0.60472 4.7768 0.563067 6.48944C0.521413 8.20207 1.12166 9.86565 2.23966 11.1361C3.35765 12.4065 4.90785 13.1865 6.56962 13.3149C8.23138 13.4433 9.87756 12.9101 11.1677 11.8257L15.0385 15.805C15.1608 15.9264 15.3246 15.9936 15.4946 15.9921C15.6646 15.9906 15.8273 15.9205 15.9475 15.7969C16.0678 15.6733 16.136 15.5061 16.1374 15.3313C16.1389 15.1565 16.0735 14.9881 15.9554 14.8623ZM7.06664 12.0003C6.04057 12.0003 5.03755 11.6875 4.18441 11.1015C3.33127 10.5155 2.66632 9.68253 2.27367 8.70799C1.88101 7.73345 1.77827 6.66109 1.97845 5.62653C2.17862 4.59196 2.67272 3.64165 3.39826 2.89577C4.12379 2.14989 5.04819 1.64194 6.05454 1.43615C7.06089 1.23037 8.10399 1.33598 9.05196 1.73965C9.99992 2.14332 10.8102 2.82691 11.3802 3.70397C11.9503 4.58103 12.2545 5.61218 12.2545 6.66701C12.253 8.08101 11.7059 9.43664 10.7333 10.4365C9.76074 11.4363 8.44208 11.9988 7.06664 12.0003Z" fill="#636D77"/>
</g>
<defs>
<clipPath id="clip0_742_836">
<rect width="15.5636" height="16" fill="white" transform="translate(0.582031)"/>
</clipPath>
</defs>
</svg>
