<svg width="11" height="11" viewBox="0 0 11 11" fill="none" xmlns="http://www.w3.org/2000/svg">
<g clip-path="url(#clip0_191_413)">
<path d="M5.50008 3.66695C5.13748 3.66695 4.78303 3.77447 4.48154 3.97592C4.18005 4.17737 3.94506 4.4637 3.8063 4.79869C3.66754 5.13369 3.63124 5.50231 3.70198 5.85795C3.77272 6.21358 3.94732 6.54025 4.20372 6.79664C4.46012 7.05304 4.78679 7.22765 5.14242 7.29839C5.49805 7.36913 5.86667 7.33282 6.20167 7.19406C6.53667 7.0553 6.82299 6.82031 7.02444 6.51882C7.22589 6.21733 7.33342 5.86288 7.33342 5.50028C7.33342 5.01405 7.14026 4.54773 6.79645 4.20392C6.45263 3.8601 5.98631 3.66695 5.50008 3.66695V3.66695ZM5.50008 6.41695C5.31878 6.41695 5.14155 6.36318 4.99081 6.26246C4.84006 6.16174 4.72257 6.01857 4.65319 5.85107C4.58381 5.68357 4.56566 5.49926 4.60103 5.32145C4.6364 5.14363 4.7237 4.9803 4.8519 4.8521C4.9801 4.7239 5.14343 4.6366 5.32125 4.60123C5.49907 4.56586 5.68338 4.58401 5.85088 4.65339C6.01837 4.72277 6.16154 4.84026 6.26226 4.99101C6.36299 5.14175 6.41675 5.31898 6.41675 5.50028C6.41675 5.74339 6.32017 5.97655 6.14826 6.14846C5.97636 6.32037 5.7432 6.41695 5.50008 6.41695Z" fill="#364356"/>
<path d="M9.75974 6.37083L9.55624 6.2535C9.64786 5.75504 9.64786 5.24405 9.55624 4.74558L9.75974 4.62825C9.91623 4.53797 10.0534 4.41774 10.1634 4.27444C10.2735 4.13115 10.3542 3.96758 10.401 3.79308C10.4478 3.61859 10.4598 3.43658 10.4363 3.25745C10.4128 3.07832 10.3542 2.90558 10.2639 2.74908C10.1736 2.59259 10.0534 2.45541 9.9101 2.34539C9.7668 2.23536 9.60324 2.15463 9.42874 2.10781C9.25424 2.061 9.07223 2.04901 8.8931 2.07253C8.71397 2.09606 8.54123 2.15463 8.38474 2.24492L8.18078 2.36271C7.79557 2.03359 7.35288 1.77845 6.87499 1.61013V1.375C6.87499 1.01033 6.73012 0.660591 6.47226 0.402728C6.2144 0.144866 5.86466 0 5.49999 0C5.13532 0 4.78558 0.144866 4.52772 0.402728C4.26985 0.660591 4.12499 1.01033 4.12499 1.375V1.61013C3.64713 1.77905 3.20459 2.03482 2.81966 2.36454L2.61478 2.24583C2.29873 2.0635 1.92319 2.01418 1.57078 2.10873C1.21837 2.20328 0.91795 2.43395 0.735614 2.75C0.553278 3.06605 0.50396 3.44159 0.598509 3.794C0.693059 4.14641 0.923731 4.44683 1.23978 4.62917L1.44328 4.7465C1.35166 5.24496 1.35166 5.75595 1.44328 6.25442L1.23978 6.37175C0.923731 6.55409 0.693059 6.8545 0.598509 7.20692C0.50396 7.55933 0.553278 7.93487 0.735614 8.25092C0.91795 8.56697 1.21837 8.79764 1.57078 8.89219C1.92319 8.98674 2.29873 8.93742 2.61478 8.75508L2.81874 8.63729C3.20409 8.96646 3.64694 9.2216 4.12499 9.38987V9.625C4.12499 9.98967 4.26985 10.3394 4.52772 10.5973C4.78558 10.8551 5.13532 11 5.49999 11C5.86466 11 6.2144 10.8551 6.47226 10.5973C6.73012 10.3394 6.87499 9.98967 6.87499 9.625V9.38987C7.35285 9.22095 7.79539 8.96518 8.18032 8.63546L8.3852 8.75371C8.70125 8.93605 9.07678 8.98536 9.4292 8.89081C9.78161 8.79626 10.082 8.56559 10.2644 8.24954C10.4467 7.93349 10.496 7.55795 10.4015 7.20554C10.3069 6.85313 10.0762 6.55271 9.7602 6.37038L9.75974 6.37083ZM8.59191 4.64017C8.74712 5.20257 8.74712 5.79651 8.59191 6.35892C8.5648 6.4568 8.57099 6.56092 8.60948 6.65491C8.64797 6.74891 8.7166 6.82745 8.80457 6.87821L9.30141 7.16513C9.40674 7.2259 9.48361 7.32604 9.51511 7.44349C9.54661 7.56095 9.53016 7.68611 9.46938 7.79144C9.40861 7.89677 9.30847 7.97364 9.19102 8.00514C9.07356 8.03664 8.9484 8.0202 8.84307 7.95942L8.34532 7.67158C8.25727 7.62059 8.15476 7.60034 8.05393 7.61403C7.95311 7.62772 7.85971 7.67458 7.78845 7.74721C7.38049 8.16368 6.86654 8.46082 6.30207 8.60658C6.20355 8.63191 6.11625 8.6893 6.05393 8.76971C5.99161 8.85012 5.95781 8.94898 5.95786 9.05071V9.625C5.95786 9.74656 5.90958 9.86314 5.82362 9.94909C5.73767 10.035 5.62109 10.0833 5.49953 10.0833C5.37797 10.0833 5.26139 10.035 5.17544 9.94909C5.08949 9.86314 5.0412 9.74656 5.0412 9.625V9.05117C5.04125 8.94944 5.00745 8.85058 4.94513 8.77017C4.88281 8.68976 4.79552 8.63237 4.69699 8.60704C4.13248 8.46069 3.61868 8.1629 3.21107 7.74583C3.13981 7.6732 3.04641 7.62635 2.94559 7.61266C2.84476 7.59897 2.74225 7.61921 2.6542 7.67021L2.15736 7.95758C2.10522 7.98815 2.04754 8.00811 1.98765 8.0163C1.92777 8.02448 1.86685 8.02075 1.80841 8.0053C1.74998 7.98985 1.69517 7.96299 1.64716 7.92627C1.59914 7.88956 1.55886 7.84371 1.52864 7.79136C1.49842 7.73901 1.47885 7.6812 1.47105 7.62126C1.46326 7.56132 1.46741 7.50043 1.48324 7.4421C1.49908 7.38377 1.5263 7.32914 1.56333 7.28137C1.60037 7.2336 1.64648 7.19363 1.69903 7.16375L2.19586 6.87683C2.28384 6.82607 2.35246 6.74753 2.39096 6.65354C2.42945 6.55955 2.43563 6.45543 2.40853 6.35754C2.25332 5.79514 2.25332 5.2012 2.40853 4.63879C2.43514 4.54111 2.42867 4.43737 2.39011 4.34376C2.35156 4.25015 2.28309 4.17194 2.19541 4.12133L1.69857 3.83442C1.59324 3.77364 1.51637 3.67351 1.48487 3.55605C1.45337 3.43859 1.46981 3.31343 1.53059 3.2081C1.59137 3.10277 1.6915 3.0259 1.80896 2.9944C1.92642 2.9629 2.05158 2.97935 2.15691 3.04013L2.65466 3.32796C2.74246 3.37907 2.84476 3.39956 2.94548 3.3862C3.0462 3.37284 3.13962 3.3264 3.21107 3.25417C3.61903 2.8377 4.13298 2.54055 4.69745 2.39479C4.79628 2.36938 4.8838 2.31172 4.94615 2.23094C5.00851 2.15016 5.04211 2.05088 5.04166 1.94883V1.375C5.04166 1.25344 5.08994 1.13686 5.1759 1.05091C5.26185 0.964955 5.37843 0.916667 5.49999 0.916667C5.62155 0.916667 5.73813 0.964955 5.82408 1.05091C5.91003 1.13686 5.95832 1.25344 5.95832 1.375V1.94883C5.95827 2.05056 5.99207 2.14942 6.05439 2.22983C6.11671 2.31024 6.204 2.36763 6.30253 2.39296C6.8672 2.53924 7.38117 2.83703 7.78891 3.25417C7.86016 3.3268 7.95357 3.37365 8.05439 3.38734C8.15522 3.40104 8.25773 3.38079 8.34578 3.32979L8.84261 3.04242C8.89476 3.01185 8.95244 2.99189 9.01232 2.98371C9.07221 2.97552 9.13313 2.97925 9.19156 2.9947C9.25 3.01015 9.30481 3.03701 9.35282 3.07373C9.40084 3.11044 9.44112 3.1563 9.47134 3.20864C9.50156 3.26099 9.52113 3.3188 9.52892 3.37874C9.53672 3.43868 9.53257 3.49957 9.51674 3.5579C9.5009 3.61623 9.47368 3.67086 9.43665 3.71863C9.39961 3.7664 9.35349 3.80637 9.30095 3.83625L8.80411 4.12317C8.71659 4.17391 8.64832 4.25218 8.60994 4.34578C8.57155 4.43938 8.56521 4.54305 8.59191 4.64063V4.64017Z" fill="#364356"/>
</g>
<defs>
<clipPath id="clip0_191_413">
<rect width="11" height="11" fill="white"/>
</clipPath>
</defs>
</svg>
