<svg width="31" height="20" viewBox="0 0 31 20" fill="none" xmlns="http://www.w3.org/2000/svg">
<path d="M2.5 17.5001L11.6667 17.5V4.99107C11.6667 3.85437 11.6667 3.28602 11.4323 2.89208C11.2267 2.54667 10.9032 2.28718 10.5214 2.16144C10.086 2.01803 9.53117 2.14132 8.4215 2.38791L6.25485 2.86939C5.50975 3.03497 5.1372 3.11776 4.85911 3.3181C4.61382 3.49482 4.42121 3.73492 4.30192 4.01271C4.16667 4.32764 4.16667 4.70927 4.16667 5.47256V17.5001M11.6617 4.16677H13.1667C14.1001 4.16677 14.5668 4.16677 14.9233 4.34842C15.2369 4.50821 15.4919 4.76317 15.6517 5.07678C15.8333 5.4333 15.8333 5.90001 15.8333 6.83343V17.5001H17.5M9.16667 10.0001H9.175" stroke="#3C4261" stroke-width="2" stroke-linecap="round" stroke-linejoin="round"/>
<path d="M30.4243 10.4243C30.6586 10.1899 30.6586 9.81005 30.4243 9.57574L26.6059 5.75736C26.3716 5.52304 25.9917 5.52304 25.7574 5.75736C25.523 5.99167 25.523 6.37157 25.7574 6.60589L29.1515 10L25.7574 13.3941C25.523 13.6284 25.523 14.0083 25.7574 14.2426C25.9917 14.477 26.3716 14.477 26.6059 14.2426L30.4243 10.4243ZM20 10.6H30V9.4H20V10.6Z" fill="#3C4261"/>
</svg>
