<svg width="11" height="11" viewBox="0 0 11 11" fill="none" xmlns="http://www.w3.org/2000/svg">
<g clip-path="url(#clip0_191_414)">
<path d="M9.075 2.02549C8.53767 1.29738 7.81267 0.728892 6.97741 0.380729C6.14216 0.0325649 5.22802 -0.082197 4.33263 0.0486983C3.46173 0.172517 2.63837 0.522046 1.94437 1.06256C1.25036 1.60308 0.709857 2.31578 0.376547 3.12984C0.0432362 3.94391 -0.0712782 4.83102 0.0443796 5.70305C0.160037 6.57507 0.501842 7.40166 1.03584 8.1007C1.2632 8.41406 1.38227 8.79298 1.375 9.18007V9.62511C1.375 9.98979 1.51987 10.3395 1.77773 10.5974C2.03559 10.8552 2.38533 11.0001 2.75 11.0001H5.95834C6.32301 11.0001 6.67275 10.8552 6.93061 10.5974C7.18847 10.3395 7.33334 9.98979 7.33334 9.62511H7.55975C8.11517 9.62377 8.6513 9.42131 9.06898 9.0552C9.48665 8.6891 9.75761 8.18411 9.83171 7.63366L9.93209 6.87511H10.0833C10.2044 6.87768 10.3248 6.85572 10.4371 6.81056C10.5495 6.7654 10.6516 6.69797 10.7372 6.61233C10.8229 6.5267 10.8903 6.42462 10.9354 6.31225C10.9806 6.19988 11.0026 6.07953 11 5.95845C11 5.30761 9.65617 2.74324 9.075 2.02549ZM9.53013 5.95845C9.419 5.95849 9.31167 5.99891 9.22812 6.07217C9.14457 6.14544 9.09048 6.24657 9.07592 6.35674L8.92284 7.51403C8.87831 7.84422 8.71572 8.14711 8.46514 8.36669C8.21455 8.58627 7.89293 8.70767 7.55975 8.70845H6.875C6.75345 8.70845 6.63687 8.75674 6.55091 8.84269C6.46496 8.92864 6.41667 9.04522 6.41667 9.16678V9.62511C6.41667 9.74667 6.36838 9.86325 6.28243 9.94921C6.19647 10.0352 6.07989 10.0834 5.95834 10.0834H2.75C2.62845 10.0834 2.51187 10.0352 2.42591 9.94921C2.33996 9.86325 2.29167 9.74667 2.29167 9.62511V9.18007C2.2986 8.59163 2.11338 8.017 1.76413 7.54336C1.32773 6.97172 1.04837 6.2959 0.953765 5.58297C0.859157 4.87004 0.952589 4.14475 1.22479 3.47907C1.49699 2.81339 1.93851 2.23044 2.50553 1.78806C3.07256 1.34567 3.7454 1.05922 4.4573 0.957115C4.65168 0.93013 4.84771 0.916653 5.04396 0.916782C5.68799 0.915914 6.32315 1.06685 6.89794 1.35735C7.47273 1.64785 7.97095 2.06973 8.35221 2.58878C9.07608 3.63029 9.65823 4.76345 10.0833 5.95845H9.53013ZM7.425 3.67182C7.39502 3.61959 7.35504 3.57377 7.30734 3.53699C7.25964 3.50022 7.20516 3.4732 7.14702 3.4575C7.08887 3.44179 7.0282 3.4377 6.96847 3.44545C6.90874 3.45321 6.85113 3.47266 6.79892 3.5027L6.34884 3.7612C6.11541 3.5246 5.82197 3.35601 5.5 3.27353V2.75011C5.5 2.62856 5.45172 2.51198 5.36576 2.42602C5.27981 2.34007 5.16323 2.29178 5.04167 2.29178C4.92011 2.29178 4.80353 2.34007 4.71758 2.42602C4.63163 2.51198 4.58334 2.62856 4.58334 2.75011V3.27353C4.26088 3.35578 3.96694 3.52438 3.73313 3.7612L3.28305 3.5027C3.23086 3.4726 3.17326 3.45308 3.11353 3.44525C3.0538 3.43741 2.99312 3.44142 2.93494 3.45704C2.87676 3.47266 2.82222 3.49959 2.77445 3.53628C2.72668 3.57298 2.6866 3.61872 2.6565 3.67091C2.62641 3.72309 2.60689 3.78069 2.59905 3.84042C2.59122 3.90015 2.59523 3.96083 2.61085 4.01901C2.62647 4.07719 2.65339 4.13173 2.69009 4.1795C2.72678 4.22728 2.77253 4.26735 2.82471 4.29745L3.27984 4.55916C3.23427 4.71605 3.21022 4.87841 3.20834 5.04178C3.21066 5.20521 3.23518 5.36757 3.28121 5.52441L2.82609 5.78611C2.7207 5.84689 2.64377 5.94705 2.61222 6.06455C2.58068 6.18205 2.5971 6.30727 2.65788 6.41266C2.71866 6.51805 2.81881 6.59498 2.93631 6.62652C3.05381 6.65807 3.17903 6.64164 3.28442 6.58086L3.7345 6.32236C3.96793 6.55896 4.26137 6.72755 4.58334 6.81003V7.33345C4.58334 7.45501 4.63163 7.57158 4.71758 7.65754C4.80353 7.74349 4.92011 7.79178 5.04167 7.79178C5.16323 7.79178 5.27981 7.74349 5.36576 7.65754C5.45172 7.57158 5.5 7.45501 5.5 7.33345V6.81003C5.82247 6.72778 6.1164 6.55918 6.35021 6.32236L6.8003 6.58086C6.85248 6.61096 6.91008 6.63048 6.96981 6.63831C7.02954 6.64615 7.09022 6.64214 7.1484 6.62652C7.20658 6.6109 7.26112 6.58398 7.30889 6.54728C7.35666 6.51059 7.39674 6.46484 7.42684 6.41266C7.45693 6.36047 7.47645 6.30287 7.48429 6.24314C7.49212 6.18341 7.48811 6.12273 7.47249 6.06455C7.45687 6.00637 7.42995 5.95184 7.39325 5.90406C7.35656 5.85629 7.31081 5.81621 7.25863 5.78611L6.8035 5.52441C6.84907 5.36751 6.87312 5.20515 6.875 5.04178C6.87268 4.87835 6.84816 4.71599 6.80213 4.55916L7.25725 4.29745C7.3624 4.23667 7.43912 4.13665 7.47057 4.01934C7.50202 3.90204 7.48563 3.77705 7.425 3.67182ZM5.04167 5.95845C4.86037 5.95845 4.68314 5.90469 4.5324 5.80396C4.38165 5.70324 4.26416 5.56007 4.19478 5.39257C4.1254 5.22508 4.10725 5.04076 4.14262 4.86295C4.17799 4.68513 4.26529 4.5218 4.39349 4.3936C4.52169 4.2654 4.68502 4.1781 4.86284 4.14273C5.04065 4.10736 5.22496 4.12551 5.39246 4.19489C5.55996 4.26427 5.70313 4.38176 5.80385 4.53251C5.90458 4.68325 5.95834 4.86048 5.95834 5.04178C5.95834 5.2849 5.86176 5.51805 5.68985 5.68996C5.51794 5.86187 5.28479 5.95845 5.04167 5.95845Z" fill="#374957"/>
</g>
<defs>
<clipPath id="clip0_191_414">
<rect width="11" height="11" fill="white"/>
</clipPath>
</defs>
</svg>
