<svg width="11" height="11" viewBox="0 0 11 11" fill="none" xmlns="http://www.w3.org/2000/svg">
<g clip-path="url(#clip0_191_408)">
<path d="M5.5 5.49997C6.0439 5.49997 6.57558 5.33869 7.02782 5.03651C7.48005 4.73434 7.83253 4.30485 8.04067 3.80235C8.24881 3.29985 8.30327 2.74692 8.19716 2.21347C8.09105 1.68002 7.82914 1.19002 7.44454 0.805427C7.05995 0.420833 6.56995 0.158921 6.0365 0.0528112C5.50305 -0.0532982 4.95012 0.00116102 4.44762 0.209302C3.94512 0.417443 3.51563 0.769917 3.21346 1.22215C2.91128 1.67439 2.75 2.20607 2.75 2.74997C2.75073 3.47909 3.04069 4.17814 3.55626 4.69371C4.07183 5.20928 4.77088 5.49924 5.5 5.49997ZM5.5 0.916637C5.8626 0.916637 6.21706 1.02416 6.51855 1.22561C6.82004 1.42706 7.05502 1.71339 7.19378 2.04838C7.33254 2.38338 7.36885 2.752 7.29811 3.10764C7.22737 3.46327 7.05276 3.78994 6.79636 4.04633C6.53997 4.30273 6.2133 4.47734 5.85767 4.54808C5.50203 4.61882 5.13341 4.58251 4.79841 4.44375C4.46342 4.30499 4.17709 4.07001 3.97564 3.76852C3.77419 3.46703 3.66667 3.11257 3.66667 2.74997C3.66667 2.26374 3.85982 1.79742 4.20364 1.45361C4.54745 1.10979 5.01377 0.916637 5.5 0.916637V0.916637Z" fill="#374957"/>
<path d="M5.5 6.41695C4.40635 6.41816 3.35785 6.85315 2.58452 7.62647C1.8112 8.3998 1.37621 9.4483 1.375 10.5419C1.375 10.6635 1.42329 10.7801 1.50924 10.866C1.5952 10.952 1.71178 11.0003 1.83333 11.0003C1.95489 11.0003 2.07147 10.952 2.15742 10.866C2.24338 10.7801 2.29167 10.6635 2.29167 10.5419C2.29167 9.69104 2.62969 8.87499 3.23137 8.27331C3.83304 7.67163 4.6491 7.33361 5.5 7.33361C6.3509 7.33361 7.16696 7.67163 7.76863 8.27331C8.37031 8.87499 8.70833 9.69104 8.70833 10.5419C8.70833 10.6635 8.75662 10.7801 8.84258 10.866C8.92853 10.952 9.04511 11.0003 9.16667 11.0003C9.28822 11.0003 9.4048 10.952 9.49076 10.866C9.57671 10.7801 9.625 10.6635 9.625 10.5419C9.62379 9.4483 9.1888 8.3998 8.41548 7.62647C7.64215 6.85315 6.59365 6.41816 5.5 6.41695V6.41695Z" fill="#374957"/>
</g>
<defs>
<clipPath id="clip0_191_408">
<rect width="11" height="11" fill="white"/>
</clipPath>
</defs>
</svg>
